<?xml version="1.0" encoding="iso-8859-1"?>
<!-- Uploaded to: SVG Repo, www.svgrepo.com, Generator: SVG Repo Mixer Tools -->
<svg height="800px" width="800px" version="1.1" id="Capa_1" xmlns="http://www.w3.org/2000/svg" xmlns:xlink="http://www.w3.org/1999/xlink" 
	 viewBox="0 0 441.797 441.797" xml:space="preserve">
<g>
	<path style="fill:#FFFFFF;" d="M167.67,95.273l-12.143-5.953l-12.144,5.953l12.144,41.84L167.67,95.273z M153.757,106.518
		c-0.47-0.46-0.73-1.11-0.73-1.77c0-0.65,0.26-1.3,0.73-1.76c0.92-0.93,2.6-0.93,3.53,0c0.47,0.46,0.74,1.11,0.74,1.76
		c0,0.66-0.27,1.31-0.74,1.77c-0.46,0.47-1.11,0.73-1.77,0.73C154.867,107.248,154.217,106.988,153.757,106.518z"/>
	<path style="fill:#333333;" d="M142.88,74.649v15.302l10.146-4.973v-6.282C149.392,78.248,145.963,76.834,142.88,74.649z"/>
	<path style="fill:#C69C6D;" d="M155.527,73.858c12.261-0.003,22.235-14.206,22.235-31.663v-9.675
		c-7.052-0.994-11.618-6.087-14.242-11.221c-0.621,0.955-1.365,1.858-2.233,2.708c-7.419,7.267-22.07,8.489-27.996,8.68v9.508
		C133.291,59.652,143.266,73.855,155.527,73.858z M164.957,43.128c0.94-0.93,2.61-0.93,3.54,0c0.46,0.46,0.73,1.11,0.73,1.77
		c0,0.65-0.27,1.3-0.73,1.77c-0.47,0.46-1.11,0.73-1.77,0.73c-0.66,0-1.3-0.27-1.77-0.73c-0.46-0.47-0.73-1.11-0.73-1.77
		C164.227,44.238,164.497,43.588,164.957,43.128z M148.786,57.618c1.189,0,2.184,0.831,2.438,1.943
		c0.493,0.32,1.959,0.89,4.303,0.89c2.343,0,3.81-0.57,4.303-0.89c0.253-1.112,1.249-1.943,2.438-1.943c1.381,0,2.5,1.119,2.5,2.5
		c0,3.14-3.8,5.333-9.24,5.333s-9.24-2.193-9.24-5.333C146.286,58.737,147.405,57.618,148.786,57.618z M141.827,44.898
		c0-0.66,0.26-1.31,0.73-1.77c0.93-0.93,2.6-0.93,3.54,0c0.46,0.47,0.73,1.11,0.73,1.77c0,0.65-0.27,1.3-0.73,1.76
		c-0.47,0.47-1.11,0.74-1.77,0.74c-0.66,0-1.31-0.27-1.77-0.74C142.087,46.198,141.827,45.558,141.827,44.898z"/>
	<path style="fill:#666666;" d="M96.449,100.259L73.118,231.09h21.484l15.905-87.531L99.603,92.622
		C97.071,96.357,96.495,99.947,96.449,100.259z"/>
	<path style="fill:#333333;" d="M168.172,74.65c-3.083,2.185-6.511,3.598-10.145,4.045v6.282l10.145,4.973V74.65z"/>
	<path style="fill:#C69C6D;" d="M75.471,241.825c-0.233,1.796,0.248,3.581,1.356,5.02c1.108,1.439,2.71,2.361,4.511,2.595
		c1.803,0.232,3.586-0.247,5.025-1.355c1.439-1.108,2.36-2.71,2.595-4.512c0.009-0.069,0.021-0.138,0.035-0.206l1.572-7.278H76.228
		L75.471,241.825z"/>
	<path style="fill:#E5CBBD;" d="M295.799,91.935c-2.701,0-5.293-0.635-7.698-1.795v11.157c0,1.156-0.792,2.161-1.917,2.431
		l-5.708,1.37c2.287,6.366,8.397,10.791,15.323,10.791c6.939,0,13.027-4.424,15.311-10.794l-5.697-1.367
		c-1.124-0.27-1.917-1.275-1.917-2.431V90.14C301.091,91.3,298.5,91.935,295.799,91.935z"/>
	<path style="fill:#666666;" d="M153.027,146.438l-18.144-62.516h-16.889c-6.476,0-11.029,1.835-14.224,4.275l11.731,54.798
		c0.002,0.008,0.001,0.016,0.003,0.023c0.022,0.107,0.052,0.439,0.052,0.493c0,0.002,0.001,0.005,0.001,0.007v61.837l14.196-4.863
		c1.306-0.447,2.727,0.249,3.175,1.555c0.447,1.306-0.249,2.728-1.555,3.175l-15.816,5.419v26.214h37.471V146.438z"/>
	<path style="fill:#E0BC4B;" d="M315.744,52.281c1.381-0.14,2.602,0.857,2.744,2.23c0.009,0.087,0,0.171,0,0.257h0.013v6.889
		c0,10.427-3.973,19.639-10.005,25.087v12.582l16.328,3.918c6.535,1.536,11.425,4.748,15.063,8.392
		c11.176-0.937,11.31-16.687,11.31-17.377c0-14.514-8.77-17.244-8.858-17.27c-1.066-0.311-1.799-1.289-1.799-2.399
		c0-23.377-11.637-23.951-12.132-23.964c-1.354-0.036-2.468-1.145-2.468-2.5c0-7.677-2.309-13.792-6.862-18.177
		c-6.579-6.334-16.311-7.647-20.779-7.909v15.086c0,4.981,1.426,8.794,4.24,11.332C307.637,53.058,315.665,52.289,315.744,52.281z"
		/>
	<path style="fill:#E5CBBD;" d="M278.096,57.317v4.34c0,13.938,7.941,25.278,17.703,25.278c9.761,0,17.703-11.34,17.703-25.278
		v-4.34c-3.511-0.109-9.666-0.955-14.312-5.146c-1.374-1.239-2.495-2.679-3.391-4.291c-0.896,1.612-2.017,3.052-3.391,4.291
		C287.762,56.361,281.608,57.208,278.096,57.317z M285.357,65.198c-0.66,0-1.31-0.27-1.77-0.73c-0.47-0.47-0.73-1.11-0.73-1.77
		c0-0.66,0.26-1.31,0.73-1.77c0.93-0.93,2.6-0.93,3.53,0c0.47,0.46,0.74,1.11,0.74,1.77c0,0.66-0.27,1.3-0.73,1.77
		C286.657,64.928,286.007,65.198,285.357,65.198z M304.477,60.928c0.93-0.93,2.6-0.93,3.53,0c0.47,0.46,0.74,1.11,0.74,1.77
		c0,0.66-0.27,1.3-0.74,1.77c-0.46,0.46-1.11,0.73-1.76,0.73c-0.66,0-1.31-0.27-1.77-0.73c-0.47-0.47-0.73-1.12-0.73-1.77
		C303.747,62.038,304.007,61.388,304.477,60.928z M295.799,75.049c2.343,0,3.809-0.57,4.303-0.89
		c0.253-1.112,1.248-1.943,2.438-1.943c1.381,0,2.5,1.119,2.5,2.5c0,3.14-3.8,5.333-9.24,5.333c-5.441,0-9.24-2.193-9.24-5.333
		c0-1.381,1.119-2.5,2.5-2.5c1.189,0,2.185,0.83,2.438,1.943C291.989,74.479,293.455,75.049,295.799,75.049z"/>
	<path style="fill:#754C24;" d="M160.842,13.259c0-1.292,0.985-2.372,2.272-2.49c1.283-0.111,2.452,0.765,2.686,2.036
		c0.105,0.558,2.53,12.786,11.961,14.665v-4.816c0-9.734-7.92-17.654-17.654-17.654h-9.162c-9.734,0-17.654,7.919-17.654,17.654
		v5.025c5.421-0.197,18.438-1.303,24.502-7.248C159.844,18.419,160.842,16.074,160.842,13.259z"/>
	<path style="fill:#E0BC4B;" d="M266.784,103.242l16.316-3.916V86.744c-6.032-5.448-10.005-14.66-10.005-25.087v-6.889h0.013
		c0-0.086-0.008-0.17,0-0.257c0.142-1.371,1.369-2.373,2.738-2.23c0.102,0.009,8.181,0.737,13.234-3.842
		c2.799-2.538,4.218-6.343,4.218-11.312V22.038c-4.467,0.261-14.2,1.576-20.779,7.911c-4.554,4.385-6.862,10.5-6.862,18.177
		c0,1.381-1.119,2.5-2.5,2.5c-0.464,0.013-12.101,0.587-12.101,23.964c0,1.111-0.733,2.088-1.799,2.399
		c-0.338,0.107-8.858,2.957-8.858,17.27c0,0.69,0.134,16.443,11.313,17.378C255.353,107.992,260.246,104.779,266.784,103.242z"/>
	<path style="fill:#E5CBBD;" d="M282.393,417.149h10.905V315.316h-22.342C271.171,325.136,272.623,363.438,282.393,417.149z"/>
	<path style="fill:#666666;" d="M211.437,92.683l-10.893,50.877l15.906,87.53h21.485l-23.318-130.755
		C214.563,99.993,213.96,96.412,211.437,92.683z"/>
	<path style="fill:#333333;" d="M115.67,427.464c-2.564,2.717-3.339,6.783-3.565,9.333h32.422v-12.33h-21
		C120.143,424.467,117.573,425.447,115.67,427.464z"/>
	<path style="fill:#FFFFFF;" d="M297.738,141.675c-0.106,0.13-0.226,0.251-0.361,0.361c-1.071,0.872-2.645,0.711-3.517-0.36
		c-10.244-12.578-25.927-7.293-28.674-6.236c-3.582,3.587-3.808,10.229-2.135,15.073c1.341,3.884,3.714,6.407,6.193,6.585
		c1.046,0.075,1.934,0.795,2.224,1.803l6.531,22.705c0.285,0.991-0.067,2.055-0.888,2.679
		c-27.733,21.136-35.351,109.561-36.538,126.031h110.451c-1.189-16.471-8.813-104.901-36.538-126.031
		c-0.82-0.624-1.172-1.688-0.888-2.679l6.531-22.705c0.29-1.008,1.178-1.728,2.224-1.803c2.48-0.177,4.853-2.701,6.193-6.585
		c1.673-4.845,1.447-11.486-2.135-15.073C323.676,134.388,307.986,129.094,297.738,141.675z"/>
	<path style="fill:#E5CBBD;" d="M344.731,129.92c-0.165-0.712-4.308-17.873-21.062-21.811l-7.669-1.84
		c-2.838,8.603-10.946,14.621-20.2,14.621c-9.235,0-17.348-6.027-20.188-14.623l-7.67,1.841
		c-16.843,3.959-21.036,21.648-21.077,21.826l-12.127,54.749l6.241,34.992l19.301-63.396c-0.765-1.217-1.425-2.599-1.954-4.131
		c-2.184-6.327-1.925-15.503,3.807-20.698c0.205-0.185,0.439-0.336,0.693-0.445c0.203-0.086,19.538-8.139,32.975,5.383
		c13.437-13.521,32.772-5.469,32.975-5.383c0.254,0.109,0.488,0.26,0.693,0.445c5.731,5.195,5.991,14.372,3.807,20.698
		c-0.529,1.532-1.19,2.914-1.955,4.131l26.093,85.704c0.018,0.059,0.034,0.118,0.047,0.177c0.719,3.186,3.897,5.19,7.082,4.474
		c1.543-0.349,2.859-1.277,3.704-2.615c0.845-1.338,1.118-2.924,0.77-4.467L344.731,129.92z"/>
	<path style="fill:#FFFFFF;" d="M298.299,422.149v14.648h18.729c-5.084-5.308-7.074-11.433-7.815-14.648H298.299z"/>
	<path style="fill:#FFFFFF;" d="M274.569,436.797h18.73v-14.648h-10.915C281.643,425.364,279.653,431.49,274.569,436.797z"/>
	<path style="fill:#C69C6D;" d="M234.824,236.09h-14.337l1.572,7.278c0.015,0.068,0.026,0.136,0.035,0.205
		c0.485,3.719,3.907,6.349,7.62,5.867c1.801-0.234,3.403-1.155,4.511-2.595c1.108-1.439,1.589-3.224,1.355-5.025L234.824,236.09z"/>
	<path style="fill:#666666;" d="M190.49,241.856h-69.928v177.611h24.09l8.377-161.27c0.072-1.378,1.237-2.446,2.627-2.367
		c1.29,0.067,2.289,1.104,2.354,2.367l0.013,0l8.377,161.27h24.09V241.856z"/>
	<path style="fill:#333333;" d="M187.527,424.467h-21v12.33h32.428c-0.221-2.549-0.993-6.614-3.587-9.35
		C193.466,425.442,190.901,424.467,187.527,424.467z"/>
	<path style="fill:#666666;" d="M193.06,83.922h-16.89l-18.143,62.516v90.418h37.47v-26.214l-15.815-5.419
		c-1.306-0.448-2.002-1.869-1.555-3.176c0.448-1.306,1.87-2.001,3.176-1.555l14.194,4.863v-61.837c0-0.001,0.001-0.004,0.001-0.007
		c0-0.056,0.031-0.389,0.052-0.493c0.001-0.008,0.001-0.016,0.002-0.023l11.724-54.759C204.077,85.775,199.524,83.922,193.06,83.922
		z"/>
	<path style="fill:#E5CBBD;" d="M298.299,417.149h10.905c9.777-53.743,11.224-92.019,11.437-101.832h-22.342V417.149z"/>
	<path style="fill:#1C1B1A;" d="M155.527,65.451c5.44,0,9.24-2.193,9.24-5.333c0-1.381-1.119-2.5-2.5-2.5
		c-1.189,0-2.184,0.831-2.438,1.943c-0.493,0.32-1.959,0.89-4.303,0.89c-2.343,0-3.81-0.57-4.303-0.89
		c-0.253-1.112-1.249-1.943-2.438-1.943c-1.381,0-2.5,1.119-2.5,2.5C146.286,63.258,150.086,65.451,155.527,65.451z"/>
	<path style="fill:#1C1B1A;" d="M146.097,46.658c0.46-0.46,0.73-1.11,0.73-1.76c0-0.66-0.27-1.3-0.73-1.77
		c-0.94-0.93-2.61-0.93-3.54,0c-0.47,0.46-0.73,1.11-0.73,1.77c0,0.66,0.26,1.3,0.73,1.76c0.46,0.47,1.11,0.74,1.77,0.74
		C144.987,47.398,145.627,47.128,146.097,46.658z"/>
	<path style="fill:#1C1B1A;" d="M166.727,47.398c0.66,0,1.3-0.27,1.77-0.73c0.46-0.47,0.73-1.12,0.73-1.77
		c0-0.66-0.27-1.31-0.73-1.77c-0.93-0.93-2.6-0.93-3.54,0c-0.46,0.46-0.73,1.11-0.73,1.77c0,0.66,0.27,1.3,0.73,1.77
		C165.427,47.128,166.067,47.398,166.727,47.398z"/>
	<path style="fill:#1C1B1A;" d="M158.027,104.748c0-0.65-0.27-1.3-0.74-1.76c-0.93-0.93-2.61-0.93-3.53,0
		c-0.47,0.46-0.73,1.11-0.73,1.76c0,0.66,0.26,1.31,0.73,1.77c0.46,0.47,1.11,0.73,1.76,0.73c0.66,0,1.31-0.26,1.77-0.73
		C157.757,106.058,158.027,105.408,158.027,104.748z"/>
	<path style="fill:#1C1B1A;" d="M289.058,72.216c-1.381,0-2.5,1.119-2.5,2.5c0,3.14,3.8,5.333,9.24,5.333
		c5.44,0,9.24-2.193,9.24-5.333c0-1.381-1.119-2.5-2.5-2.5c-1.189,0-2.185,0.83-2.438,1.943c-0.493,0.32-1.96,0.89-4.303,0.89
		c-2.343,0-3.81-0.57-4.303-0.89C291.243,73.047,290.247,72.216,289.058,72.216z"/>
	<path style="fill:#1C1B1A;" d="M287.857,62.698c0-0.66-0.27-1.31-0.74-1.77c-0.93-0.93-2.6-0.93-3.53,0
		c-0.47,0.46-0.73,1.11-0.73,1.77c0,0.66,0.26,1.3,0.73,1.77c0.46,0.46,1.11,0.73,1.77,0.73c0.65,0,1.3-0.27,1.77-0.73
		C287.587,63.999,287.857,63.358,287.857,62.698z"/>
	<path style="fill:#1C1B1A;" d="M306.247,65.198c0.65,0,1.3-0.27,1.76-0.73c0.47-0.47,0.74-1.11,0.74-1.77
		c0-0.66-0.27-1.31-0.74-1.77c-0.93-0.93-2.6-0.93-3.53,0c-0.47,0.46-0.73,1.11-0.73,1.77c0,0.65,0.26,1.3,0.73,1.77
		C304.937,64.928,305.587,65.198,306.247,65.198z"/>
	<path style="fill:#1C1B1A;" d="M349.61,128.827c-0.105-0.463-1.564-6.591-6.044-12.842c8.638-2.64,12.631-12.479,12.631-21.726
		c0-14.167-7.223-19.556-10.675-21.322c-0.478-20.867-10.014-25.792-14.636-26.954c-0.416-8.116-3.225-14.724-8.367-19.661
		c-9.976-9.579-25.163-9.382-26.715-9.339c-1.467-0.045-16.717-0.272-26.725,9.339c-5.143,4.938-7.952,11.545-8.367,19.661
		c-4.622,1.162-14.158,6.087-14.636,26.954c-3.453,1.766-10.675,7.155-10.675,21.322c0,9.248,4.002,19.076,12.641,21.715
		c-4.488,6.257-5.95,12.396-6.056,12.865l-9.532,43.034l-12.901-72.34c-0.03-0.206-3.296-20.61-26.491-20.61h-19.888v-8.835
		c5.862-6.73,9.59-16.733,9.59-27.892V22.654C182.762,10.163,172.599,0,160.108,0h-9.162c-12.492,0-22.654,10.163-22.654,22.654
		v19.542c0,11.158,3.728,21.161,9.589,27.891v8.836h-19.887c-23.195,0-26.461,20.404-26.479,20.534L67.672,233.151
		c-0.13,0.729,0.069,1.477,0.544,2.044c0.475,0.567,1.177,0.895,1.916,0.895h1.052l-0.671,5.085
		c-0.406,3.125,0.429,6.222,2.351,8.72c1.923,2.498,4.704,4.097,7.829,4.502c0.518,0.067,1.034,0.101,1.547,0.101
		c2.587,0,5.089-0.847,7.173-2.452c2.468-1.9,4.059-4.638,4.488-7.719l1.779-8.237h1.009c1.209,0,2.244-0.864,2.46-2.053
		l11.407-62.775v68.094c0,1.381,1.119,2.5,2.5,2.5h2.507v179.465c-1.306,0.706-2.486,1.606-3.528,2.711
		c-5.49,5.816-5.026,15.02-5.003,15.41c0.076,1.323,1.171,2.356,2.496,2.356h37.5c1.381,0,2.5-1.119,2.5-2.5v-17.266l6-115.51
		l6,115.51v17.266c0,1.381,1.119,2.5,2.5,2.5h37.5c1.325,0,2.419-1.033,2.496-2.356c0.023-0.389,0.487-9.594-5.003-15.41
		c-1.042-1.105-2.223-2.005-3.528-2.711V241.856h2.506c1.381,0,2.5-1.119,2.5-2.5V171.26l11.408,62.777
		c0.216,1.189,1.251,2.053,2.46,2.053h1.008l1.779,8.238c0.821,5.882,5.88,10.17,11.677,10.169c0.505,0,1.017-0.033,1.531-0.1
		c3.126-0.406,5.906-2.005,7.829-4.502c1.922-2.498,2.757-5.594,2.351-8.725l-0.67-5.081h1.072c1.381,0,2.5-1.119,2.5-2.5
		c0-0.261-0.04-0.513-0.114-0.749l-0.418-2.343l21.325-70.042c0.902,0.597,1.859,1.044,2.859,1.32l5.643,19.616
		c-31.105,26.399-37.088,126.956-37.331,131.283c-0.038,0.687,0.208,1.358,0.68,1.858c0.472,0.499,1.129,0.782,1.816,0.782h28.055
		c0.217,10.01,1.701,49.382,11.821,104.376c-0.319,1.921-2.382,11.839-11.57,17.473c-0.955,0.585-1.403,1.733-1.1,2.811
		c0.304,1.077,1.287,1.821,2.406,1.821h56.571c1.119,0,2.102-0.744,2.406-1.821c0.304-1.078-0.145-2.225-1.1-2.811
		c-9.187-5.633-11.25-15.549-11.57-17.473c10.12-54.995,11.605-94.367,11.821-104.377h28.055c0.688,0,1.344-0.283,1.816-0.782
		c0.472-0.499,0.718-1.171,0.68-1.858c-0.243-4.327-6.226-104.884-37.331-131.283l5.643-19.616c1-0.276,1.958-0.724,2.859-1.32
		l25.238,82.898c0.659,2.805,2.361,5.194,4.8,6.735c1.768,1.117,3.771,1.692,5.812,1.692c0.807,0,1.62-0.09,2.426-0.272
		c2.846-0.642,5.272-2.355,6.83-4.822c1.558-2.467,2.062-5.393,1.422-8.229L349.61,128.827z M298.299,22.041
		c4.468,0.262,14.2,1.575,20.779,7.909c4.554,4.385,6.862,10.5,6.862,18.177c0,1.355,1.114,2.464,2.468,2.5
		c0.496,0.013,12.132,0.587,12.132,23.964c0,1.111,0.733,2.088,1.799,2.399c0.088,0.026,8.858,2.756,8.858,17.27
		c0,0.69-0.134,16.44-11.31,17.377c-3.638-3.644-8.528-6.856-15.063-8.392l-16.328-3.918V86.744
		c6.032-5.448,10.005-14.66,10.005-25.087v-6.889h-0.013c0-0.086,0.008-0.17,0-0.257c-0.142-1.373-1.362-2.37-2.744-2.23
		c-0.079,0.007-8.107,0.777-13.206-3.823c-2.814-2.538-4.24-6.35-4.24-11.332V22.041z M305.413,103.729l5.697,1.367
		c-2.284,6.37-8.372,10.794-15.311,10.794c-6.926,0-13.036-4.425-15.323-10.791l5.708-1.37c1.124-0.27,1.917-1.275,1.917-2.431
		V90.14c2.405,1.16,4.997,1.795,7.698,1.795c2.701,0,5.292-0.635,7.698-1.795v11.157
		C303.496,102.454,304.289,103.459,305.413,103.729z M295.799,47.879c0.895,1.612,2.017,3.052,3.391,4.291
		c4.646,4.191,10.801,5.037,14.312,5.146v4.34c0,13.938-7.941,25.278-17.703,25.278c-9.761,0-17.703-11.34-17.703-25.278v-4.34
		c3.512-0.109,9.666-0.956,14.312-5.146C293.781,50.931,294.903,49.492,295.799,47.879z M240.4,94.259
		c0-14.313,8.52-17.163,8.858-17.27c1.066-0.311,1.799-1.289,1.799-2.399c0-23.377,11.637-23.951,12.101-23.964
		c1.381,0,2.5-1.119,2.5-2.5c0-7.677,2.309-13.792,6.862-18.177c6.579-6.335,16.311-7.65,20.779-7.911v15.088
		c0,4.969-1.419,8.774-4.218,11.312c-5.053,4.58-13.132,3.851-13.234,3.842c-1.369-0.143-2.596,0.859-2.738,2.23
		c-0.009,0.087,0,0.171,0,0.257h-0.013v6.889c0,10.427,3.973,19.639,10.005,25.087v12.582l-16.316,3.916
		c-6.539,1.537-11.432,4.75-15.071,8.395C240.534,110.703,240.4,94.95,240.4,94.259z M133.291,22.654
		c0-9.734,7.92-17.654,17.654-17.654h9.162c9.734,0,17.654,7.919,17.654,17.654v4.816c-9.432-1.879-11.856-14.106-11.961-14.665
		c-0.234-1.271-1.403-2.147-2.686-2.036c-1.287,0.118-2.272,1.197-2.272,2.49c0,2.814-0.998,5.16-3.049,7.172
		c-6.064,5.944-19.08,7.051-24.502,7.248V22.654z M133.291,42.195v-9.508c5.925-0.191,20.577-1.414,27.996-8.68
		c0.868-0.85,1.612-1.753,2.233-2.708c2.624,5.135,7.19,10.228,14.242,11.221v9.675c0,17.457-9.975,31.66-22.235,31.663
		C143.266,73.855,133.291,59.652,133.291,42.195z M155.527,89.32l12.143,5.953l-12.143,41.84l-12.144-41.84L155.527,89.32z
		 M142.88,89.951V74.649c3.083,2.185,6.512,3.599,10.146,4.047v6.282L142.88,89.951z M158.027,84.978v-6.282
		c3.634-0.448,7.062-1.861,10.145-4.045v15.3L158.027,84.978z M88.993,243.368c-0.015,0.068-0.026,0.137-0.035,0.206
		c-0.234,1.801-1.156,3.403-2.595,4.512c-1.439,1.108-3.223,1.586-5.025,1.355c-1.801-0.234-3.403-1.155-4.511-2.595
		c-1.108-1.439-1.589-3.224-1.356-5.02l0.757-5.735h14.337L88.993,243.368z M94.603,231.09H73.118l23.331-130.831
		c0.046-0.312,0.622-3.902,3.154-7.637l10.904,50.937L94.603,231.09z M115.556,236.856v-26.214l15.816-5.419
		c1.306-0.448,2.002-1.869,1.555-3.175c-0.448-1.306-1.869-2.002-3.175-1.555l-14.196,4.863v-61.837
		c0-0.002-0.001-0.005-0.001-0.007c0-0.054-0.03-0.386-0.052-0.493c-0.002-0.008-0.001-0.016-0.003-0.023L103.77,88.198
		c3.194-2.44,7.748-4.275,14.224-4.275h16.889l18.144,62.516v90.418H115.556z M144.527,436.797h-32.422
		c0.226-2.55,1.001-6.617,3.565-9.333c1.903-2.017,4.473-2.997,7.856-2.997h21V436.797z M158.023,258.197l-0.013,0
		c-0.065-1.263-1.064-2.3-2.354-2.367c-1.389-0.079-2.555,0.989-2.627,2.367l-8.377,161.27h-24.09V241.856h69.928v177.611H166.4
		L158.023,258.197z M198.955,436.797h-32.428v-12.33h21c3.374,0,5.939,0.975,7.841,2.98
		C197.962,430.183,198.734,434.249,198.955,436.797z M195.551,142.996c-0.001,0.008-0.001,0.016-0.002,0.023
		c-0.021,0.105-0.052,0.437-0.052,0.493c0,0.002-0.001,0.005-0.001,0.007v61.837l-14.194-4.863
		c-1.306-0.447-2.728,0.249-3.176,1.555c-0.447,1.307,0.249,2.728,1.555,3.176l15.815,5.419v26.214h-37.47v-90.418l18.143-62.516
		h16.89c6.464,0,11.018,1.853,14.215,4.314L195.551,142.996z M234.226,246.845c-1.108,1.439-2.71,2.361-4.511,2.595
		c-3.713,0.482-7.135-2.147-7.62-5.867c-0.009-0.069-0.02-0.137-0.035-0.205l-1.572-7.278h14.337l0.756,5.73
		C235.815,243.621,235.334,245.406,234.226,246.845z M216.45,231.09l-15.906-87.53l10.893-50.877c2.523,3.729,3.126,7.31,3.18,7.652
		l23.318,130.755H216.45z M293.299,436.797h-18.73c5.084-5.308,7.074-11.433,7.815-14.648h10.915V436.797z M293.299,417.149h-10.905
		c-9.771-53.711-11.222-92.013-11.437-101.832h22.342V417.149z M317.028,436.797h-18.729v-14.648h10.914
		C309.954,425.364,311.944,431.49,317.028,436.797z M309.204,417.149h-10.905V315.316h22.342
		C320.427,325.13,318.981,363.406,309.204,417.149z M328.547,150.514c-1.341,3.884-3.714,6.407-6.193,6.585
		c-1.046,0.075-1.934,0.795-2.224,1.803l-6.531,22.705c-0.285,0.991,0.067,2.055,0.888,2.679
		c27.725,21.13,35.35,109.56,36.538,126.031H240.573c1.187-16.47,8.805-104.895,36.538-126.031c0.82-0.624,1.172-1.688,0.888-2.679
		l-6.531-22.705c-0.29-1.008-1.178-1.728-2.224-1.803c-2.479-0.177-4.853-2.701-6.193-6.585c-1.673-4.845-1.447-11.486,2.135-15.073
		c2.748-1.058,18.431-6.342,28.674,6.236c0.872,1.071,2.446,1.232,3.517,0.36c0.135-0.11,0.255-0.232,0.361-0.361
		c10.248-12.582,25.938-7.288,28.673-6.234C329.994,139.028,330.219,145.669,328.547,150.514z M368.244,244.018
		c-0.845,1.337-2.161,2.266-3.704,2.615c-3.186,0.716-6.363-1.288-7.082-4.474c-0.013-0.06-0.029-0.119-0.047-0.177l-26.093-85.704
		c0.765-1.217,1.425-2.599,1.955-4.131c2.184-6.327,1.925-15.503-3.807-20.698c-0.205-0.185-0.439-0.336-0.693-0.445
		c-0.203-0.086-19.538-8.139-32.975,5.383c-13.437-13.521-32.772-5.469-32.975-5.383c-0.254,0.109-0.488,0.26-0.693,0.445
		c-5.731,5.195-5.991,14.372-3.807,20.698c0.529,1.532,1.19,2.914,1.954,4.131l-19.301,63.396l-6.241-34.992l12.127-54.749
		c0.04-0.178,4.233-17.867,21.077-21.826l7.67-1.841c2.84,8.597,10.953,14.623,20.188,14.623c9.254,0,17.362-6.018,20.2-14.621
		l7.669,1.84c16.754,3.938,20.898,21.099,21.062,21.811l24.284,109.631C369.362,241.093,369.089,242.68,368.244,244.018z"/>
</g>
</svg>